<svg width="17" height="12" viewBox="0 0 17 12" fill="none" xmlns="http://www.w3.org/2000/svg">
<path d="M8.75 0.375C5 0.375 1.7975 2.7075 0.5 6C1.7975 9.2925 5 11.625 8.75 11.625C12.5 11.625 15.7025 9.2925 17 6C15.7025 2.7075 12.5 0.375 8.75 0.375ZM8.75 9.75C6.68 9.75 5 8.07 5 6C5 3.93 6.68 2.25 8.75 2.25C10.82 2.25 12.5 3.93 12.5 6C12.5 8.07 10.82 9.75 8.75 9.75ZM8.75 3.75C7.505 3.75 6.5 4.755 6.5 6C6.5 7.245 7.505 8.25 8.75 8.25C9.995 8.25 11 7.245 11 6C11 4.755 9.995 3.75 8.75 3.75Z" fill="#C4C4C4"/>
</svg>
