<svg width="22" height="22" viewBox="0 0 22 22" fill="none" xmlns="http://www.w3.org/2000/svg">
<circle cx="11" cy="11" r="11" fill="#FEBC59"/>
<path d="M10.9941 5.1665C7.77413 5.1665 5.16663 7.77984 5.16663 10.9998C5.16663 14.2198 7.77413 16.8332 10.9941 16.8332C14.22 16.8332 16.8333 14.2198 16.8333 10.9998C16.8333 7.77984 14.22 5.1665 10.9941 5.1665ZM11 15.6665C8.42163 15.6665 6.33329 13.5782 6.33329 10.9998C6.33329 8.4215 8.42163 6.33317 11 6.33317C13.5783 6.33317 15.6666 8.4215 15.6666 10.9998C15.6666 13.5782 13.5783 15.6665 11 15.6665Z" fill="white"/>
<path d="M11.2916 8.0835H10.4166V11.5835L13.4791 13.421L13.9166 12.7035L11.2916 11.146V8.0835Z" fill="white"/>
</svg>
